<svg width="36" height="36" viewBox="0 0 36 36" fill="none" xmlns="http://www.w3.org/2000/svg">
<path d="M22.031 11.75C22.486 11.7496 22.9366 11.8401 23.3562 12.0161C23.7758 12.1921 24.1561 12.4501 24.4747 12.775C25.1312 13.4415 25.4992 14.3395 25.4992 15.275C25.4992 16.2105 25.1312 17.1085 24.4747 17.775L17.9997 24.3313L11.5247 17.775C10.8682 17.1085 10.5002 16.2105 10.5002 15.275C10.5002 14.3395 10.8682 13.4415 11.5247 12.775C11.8435 12.4503 12.2238 12.1925 12.6434 12.0164C13.063 11.8404 13.5135 11.7497 13.9685 11.7497C14.4235 11.7497 14.874 11.8404 15.2935 12.0164C15.7131 12.1925 16.0934 12.4503 16.4122 12.775L17.9997 14.4L19.581 12.7875C19.8986 12.4587 20.2793 12.1974 20.7003 12.0192C21.1212 11.8409 21.5738 11.7493 22.031 11.75ZM22.031 10.5C21.4095 10.4995 20.7942 10.623 20.2211 10.8634C19.648 11.1038 19.1286 11.4563 18.6935 11.9L17.9997 12.6L17.306 11.9C16.8703 11.4571 16.3509 11.1053 15.7779 10.8651C15.2048 10.625 14.5898 10.5013 13.9685 10.5013C13.3472 10.5013 12.7321 10.625 12.1591 10.8651C11.5861 11.1053 11.0666 11.4571 10.631 11.9C9.74466 12.8023 9.24805 14.0165 9.24805 15.2813C9.24805 16.546 9.74466 17.7602 10.631 18.6625L17.9997 26.125L25.3685 18.6625C26.2548 17.7602 26.7514 16.546 26.7514 15.2813C26.7514 14.0165 26.2548 12.8023 25.3685 11.9C24.9329 11.4568 24.4135 11.1048 23.8405 10.8644C23.2675 10.6241 22.6524 10.5002 22.031 10.5Z" fill="#637381"/>
</svg>
