<svg width="106" height="32" viewBox="0 0 106 32" fill="none" xmlns="http://www.w3.org/2000/svg">
<g clip-path="url(#clip0_19201_4228)">
<mask id="mask0_19201_4228" style="mask-type:alpha" maskUnits="userSpaceOnUse" x="0" y="0" width="106" height="32">
<rect width="106" height="32" fill="#919EAB"/>
</mask>
<g mask="url(#mask0_19201_4228)">
<path fill-rule="evenodd" clip-rule="evenodd" d="M32.4158 8.93806C32.6872 9.0917 33.1077 9.2088 33.522 9.24586C33.7572 9.26671 34.2483 9.25333 34.4861 9.21935C35.299 9.10303 35.9717 8.76408 36.6016 8.1531C37.195 7.57738 37.5334 7.00424 37.6362 6.39995C37.6804 6.13924 37.6652 5.77096 37.6008 5.55709C37.4698 5.12086 37.1307 4.63907 36.7572 4.35906C36.3623 4.06284 35.8958 3.95655 35.2504 4.01574C34.2005 4.112 33.2372 4.59584 32.4238 5.43484C31.9878 5.88445 31.7319 6.3266 31.6358 6.79629C31.5885 7.02637 31.5838 7.48756 31.6262 7.73C31.6802 8.04192 31.787 8.31241 31.9325 8.51032C32.0341 8.6475 32.2659 8.85313 32.4158 8.93806ZM80.8489 26.4145C81.8686 27.3716 83.1619 27.8853 84.8249 27.9945C85.0748 28.0107 86.1182 27.9888 86.3844 27.961C88.4488 27.7507 90.1601 26.9799 91.6581 25.585C92.6281 24.6822 93.4984 23.4865 94.0282 22.3284C94.6206 21.0346 94.9269 19.6739 94.969 18.1493C95.015 16.478 94.6222 15.0141 93.8287 13.8997C93.4997 13.4373 93.0554 12.966 92.6979 12.6992C92.1045 12.257 91.3955 11.9464 90.6253 11.7912C90.0797 11.6813 89.6147 11.645 88.9298 11.6592C87.3201 11.6918 85.9182 12.0264 84.5897 12.6945C83.4238 13.2813 82.4762 14.0253 81.478 15.1395C81.0113 15.6604 80.7176 16.0359 80.3894 16.5323C79.576 17.761 79.1012 19.055 78.9593 20.4314C78.905 20.9535 78.9063 21.6981 78.9619 22.2211L78.9725 22.3214L78.5662 22.4949C76.5706 23.3468 74.8725 23.8092 73.1398 23.9727C72.726 24.0113 71.8472 24.0267 71.6058 23.9999C70.9757 23.9284 70.4706 23.704 70.0622 23.3128C69.9351 23.191 69.7304 22.9561 69.7521 22.9561C69.7872 22.9561 70.3352 22.8475 70.6311 22.7821C72.7929 22.3044 74.6944 21.3746 76.2367 20.0422C77.5502 18.9075 78.3597 17.8348 78.7164 16.7565C78.8764 16.2729 78.9239 15.9466 78.9089 15.437C78.895 14.9521 78.8125 14.5048 78.6634 14.1023C78.2064 12.868 77.1803 12.1615 75.5396 11.9513C74.675 11.8406 73.5034 11.889 72.5078 12.0768C70.071 12.537 67.9033 13.8774 66.0855 16.0469C65.4637 16.7894 64.9958 17.499 64.604 18.2932C64.0295 19.4577 63.7568 20.5469 63.7258 21.8062C63.7159 22.1958 63.7382 22.8282 63.7666 22.9473C63.7731 22.9769 63.7428 23.0037 63.6076 23.0902C63.3745 23.2394 63.1406 23.3588 62.9708 23.4155C62.8323 23.4618 62.8152 23.4633 62.5557 23.4541C62.2486 23.443 62.0949 23.4093 61.9181 23.3161C61.678 23.1882 61.5805 22.9862 61.535 22.5209C61.4774 21.9336 61.5492 21.4801 62.0393 19.3265C62.4296 17.6125 62.5722 16.7475 62.6188 15.8199C62.6834 14.5267 62.413 13.6146 61.7625 12.9323C61.3401 12.4886 60.7351 12.2297 59.9483 12.1551C59.6759 12.1294 59.1321 12.1427 58.8116 12.1831C57.4803 12.3509 56.2588 12.9501 55.1029 14.0022C54.8155 14.2637 54.3381 14.7529 54.0926 15.0378C53.9649 15.1858 53.7811 15.367 53.5782 15.5446L53.2621 15.8212L53.2505 15.4491C53.2257 14.6744 53.1104 14.1249 52.8657 13.6167C52.7418 13.3546 52.5738 13.1155 52.3689 12.9099C51.8246 12.3646 51.0285 12.1106 49.9688 12.1438C48.8311 12.1795 47.6879 12.5051 46.6574 13.0867C46.4506 13.2036 45.9831 13.5129 45.7796 13.6679C45.0534 14.2207 44.4015 14.8968 43.9371 15.5783C43.8701 15.6766 43.8151 15.7471 43.8151 15.7353C43.8151 15.7234 43.8293 15.6349 43.8461 15.5386C43.8934 15.2689 43.8885 14.6175 43.8368 14.2842C43.7417 13.6717 43.537 13.1428 43.202 12.6436C42.8771 12.1595 42.4845 11.8764 41.9839 11.7654C41.9079 11.7485 41.7644 11.7369 41.623 11.7361C41.4245 11.7348 41.3692 11.741 41.2638 11.7757C41.0231 11.855 40.7396 12.0205 40.3739 12.2941C39.8916 12.6554 39.545 12.9617 38.3837 14.0524C37.4339 14.9446 36.6422 15.6794 36.4858 15.8145C36.4297 15.8632 36.383 15.9079 36.3819 15.9141C36.3809 15.9229 37.2573 16.9284 37.3641 17.0411C37.3832 17.0617 37.431 17.0347 37.6463 16.8821C38.1674 16.5127 38.5429 16.284 38.722 16.2258C38.9795 16.1424 39.1842 16.3097 39.2095 16.6244C39.2206 16.7621 39.1868 17.3355 39.1405 17.7985C39.0834 18.3704 38.9867 19.0372 38.7986 20.1616C38.7009 20.7448 38.5951 21.4201 38.5641 21.6621C38.5329 21.904 38.5039 22.1199 38.4995 22.142C38.4848 22.2174 37.6132 22.884 37.2108 23.1277C36.9885 23.2626 36.7066 23.3957 36.5709 23.4309C36.3362 23.4919 35.9904 23.4525 35.7489 23.3383C35.6471 23.2899 35.5799 23.2399 35.4776 23.1375C35.2051 22.8647 35.0785 22.4951 35.0526 21.8981C35.0423 21.6603 35.0452 21.6348 35.1522 20.9705C35.475 18.9747 35.7691 17.3206 36.0568 15.8871C36.2119 15.1148 36.2393 14.9526 36.2535 14.7133C36.3039 13.8781 36.1341 13.1495 35.7593 12.5885C35.3478 11.9731 34.7518 11.6993 33.8919 11.7307C33.6619 11.7394 33.581 11.7497 33.4481 11.7883C32.7609 11.9888 31.942 12.5712 30.5347 13.8606C30.1928 14.1738 29.8749 14.4644 29.8283 14.5066L29.7436 14.5828L29.7317 14.4345C29.6084 12.896 29.0426 12.0022 27.9715 11.6537C27.1837 11.3974 25.9467 11.4548 25.0359 11.7899C24.6203 11.943 24.1471 12.2125 23.7919 12.4987C23.5792 12.6701 23.2194 13.0386 23.0375 13.2715C22.5355 13.9142 22.1522 14.6543 21.8255 15.6125C21.7713 15.7721 21.7289 15.9118 21.7317 15.9226C21.7348 15.9352 21.8049 15.9172 21.9191 15.8742C22.3259 15.7214 22.6831 15.6544 23.0902 15.6544C23.4378 15.6544 23.5846 15.682 23.803 15.789C24.0731 15.9213 24.2461 16.1409 24.3386 16.4695C24.3655 16.5665 24.3711 16.6515 24.3706 16.9727C24.3699 17.3047 24.3639 17.3852 24.3288 17.5466C24.1882 18.1931 23.7919 19.0375 23.138 20.0865C22.3445 21.3586 21.7661 21.9876 21.3613 22.0185C21.2717 22.0249 21.2412 22.0185 21.1417 21.9696C20.7718 21.7882 20.4244 21.0665 20.1119 19.8296C19.8493 18.7899 19.6808 17.8896 19.2828 15.3927C19.13 14.4356 19.0848 14.2006 18.9848 13.8485C18.5661 12.3749 17.7933 11.68 16.6297 11.7312C16.1673 11.7513 15.7729 11.9065 15.15 12.3139C14.5671 12.6948 14.0621 13.104 13.1911 13.901C12.555 14.4813 11.916 15.0584 11.274 15.6323C10.9903 15.885 10.9561 15.9213 10.9781 15.9468C11.1269 16.137 11.2748 16.328 11.4216 16.5197C11.6899 16.8679 11.8481 17.0589 11.8621 17.0512C11.8737 17.0442 11.9745 16.9755 12.0856 16.898C12.4837 16.6208 12.9481 16.3233 13.1091 16.2425C13.2632 16.1661 13.2792 16.1612 13.3785 16.1712C13.6232 16.1957 13.9122 16.4214 14.1427 16.7683C14.4428 17.2192 14.7866 18.0513 15.0481 18.9585C15.3304 19.9879 15.61 21.018 15.8871 22.0489C16.4066 23.9739 16.6801 24.9548 16.7349 25.095C17.3839 26.7519 18.1324 27.6599 19.0339 27.8838C19.2381 27.9348 19.6423 27.9376 19.914 27.8897C21.3686 27.6349 23.0178 26.3903 24.9398 24.0977C25.9214 22.926 27.0648 21.3643 27.8134 20.1709C28.4929 19.0877 29.0816 17.9131 29.3499 17.1057L29.3983 16.96L29.727 16.7258C30.1129 16.4512 30.2706 16.3496 30.4696 16.2479C30.604 16.1792 30.6257 16.1735 30.7505 16.1751C31.1956 16.1813 31.4543 16.5514 31.4595 17.1886C31.461 17.3834 31.4551 17.4182 31.3597 17.7906C31.2385 18.2636 31.04 18.9914 30.7505 20.0278C30.3476 21.4693 30.1739 22.1696 30.0038 23.0374C29.7449 24.3595 29.712 25.2126 29.893 25.9114C29.9868 26.2743 30.0902 26.5121 30.2763 26.7931C30.7436 27.4988 31.4616 27.8442 32.4628 27.8442C33.1421 27.8442 33.91 27.7124 34.612 27.4754C35.8821 27.0466 37.0785 26.2951 38.3974 25.0978C38.4894 25.0142 38.5675 24.9493 38.5711 24.9532C38.5921 25.0116 38.6105 25.0708 38.6264 25.1308C38.7763 25.6548 39.0345 26.1461 39.3338 26.4768C39.7743 26.9635 40.4139 27.3202 41.2077 27.5209C41.7435 27.6565 42.2227 27.7142 42.9567 27.7304C43.4473 27.7415 43.4602 27.7412 43.4473 27.7078C43.3545 27.4671 43.2589 27.0098 43.2126 26.5864C43.1263 25.7968 43.1255 24.5978 43.211 23.756C43.369 22.2007 43.8236 20.6764 44.5563 19.2462C45.2149 17.9602 45.8417 17.1978 46.4286 16.9675C46.5455 16.9217 46.5992 16.9119 46.7662 16.9055C46.904 16.9001 47.0053 16.9063 47.097 16.9256C47.5496 17.0213 47.8047 17.3111 47.9145 17.8541C47.9484 18.0204 47.943 18.6427 47.9052 18.9762C47.8378 19.5692 47.7357 20.0893 47.5243 20.9167C47.2955 21.8116 47.1903 22.4228 47.1373 23.1633C47.0603 24.238 47.1242 24.9612 47.3555 25.6308C47.7391 26.7421 48.6189 27.3626 50.1727 27.6185C50.602 27.6892 50.9952 27.7199 51.6186 27.7312C52.1787 27.7417 52.1942 27.7412 52.1833 27.7078C52.1774 27.689 52.1358 27.5683 52.091 27.4401C51.9954 27.1652 51.9137 26.7774 51.8701 26.3888C51.8316 26.0452 51.8264 24.9854 51.8615 24.6096C52.0301 22.8125 52.6511 21.0637 53.7832 19.2009C54.6038 17.8505 55.3324 17.0898 55.9608 16.9274C56.1125 16.8882 56.4182 16.898 56.5382 16.9464C56.8762 17.0818 57.0659 17.3757 57.143 17.8845C57.1776 18.1143 57.1776 18.6085 57.1422 18.9456C57.083 19.5141 56.921 20.3958 56.7356 21.1556C56.3885 22.5839 56.304 23.0019 56.2058 23.7832C56.0414 25.0896 56.1241 25.9991 56.4679 26.6683C56.7669 27.2509 57.2926 27.6257 58.0168 27.7718C58.5371 27.8774 59.2812 27.8632 59.976 27.7345C61.4169 27.4684 62.8718 26.7169 64.2737 25.5148L64.5296 25.2955L64.6144 25.4422C64.742 25.6549 64.8823 25.8599 65.0344 26.056C65.1858 26.2485 65.6573 26.7061 65.8558 26.8538C66.649 27.444 67.6296 27.7873 68.8366 27.8985C69.3791 27.9484 70.2651 27.9368 71.0198 27.8699C73.3791 27.6619 75.7156 26.9434 77.9857 25.7276C78.3318 25.5426 79.1467 25.0765 79.4168 24.9092C79.5393 24.8333 79.6453 24.7715 79.652 24.7715C79.6592 24.7715 79.7001 24.8418 79.7427 24.9282C79.996 25.4373 80.4341 26.0254 80.8489 26.4145ZM88.9714 22.1508C88.1515 23.5107 87.1919 24.2612 86.105 24.3924C85.7372 24.4364 85.4092 24.4063 85.1872 24.3075C84.8915 24.1762 84.6186 23.8787 84.4082 23.46C84.1074 22.8606 83.9895 22.2234 84.0378 21.4564C84.1283 20.0229 84.5333 18.749 85.3022 17.4809C85.8959 16.5024 86.5299 15.8714 87.2963 15.498C87.6995 15.3011 88.1151 15.1917 88.5876 15.1582C89.0042 15.1284 89.203 15.1801 89.4216 15.3744C89.6276 15.5579 89.7811 15.8294 89.9316 16.2785C90.097 16.7714 90.1709 17.2141 90.1869 17.8086C90.2262 19.2735 89.8109 20.7585 88.9714 22.1508ZM69.3319 21.2381C71.0042 20.5726 72.5157 19.3944 73.4087 18.0604C73.6868 17.6448 73.8625 17.2508 73.9179 16.9185C73.9445 16.761 73.9313 16.463 73.8907 16.2942C73.8587 16.1596 73.7762 15.9912 73.7007 15.9058C73.6255 15.8209 73.4885 15.7362 73.3536 15.6922C73.2187 15.6477 72.8388 15.6387 72.6633 15.6757C71.9171 15.833 71.1823 16.4015 70.4431 17.3949C69.64 18.4735 69.2012 19.4911 69.0998 20.51C69.0735 20.7725 69.075 21.321 69.1022 21.321C69.1135 21.3212 69.2169 21.2837 69.3319 21.2381Z" fill="#1AB7EA"/>
</g>
</g>
<defs>
<clipPath id="clip0_19201_4228">
<rect width="106" height="32" fill="white"/>
</clipPath>
</defs>
</svg>
