<svg width="106" height="32" viewBox="0 0 106 32" fill="none" xmlns="http://www.w3.org/2000/svg">
<g clip-path="url(#clip0_19201_4231)">
<mask id="mask0_19201_4231" style="mask-type:alpha" maskUnits="userSpaceOnUse" x="0" y="0" width="106" height="32">
<rect width="106" height="32" fill="#919EAB"/>
</mask>
<g mask="url(#mask0_19201_4231)">
<path fill-rule="evenodd" clip-rule="evenodd" d="M33.0538 22.1181C33.1019 22.236 33.15 22.3539 33.1981 22.4686C33.5753 23.5356 33.6913 24.5442 33.4608 25.553C33.1413 27.6865 31.7194 29.5308 29.6875 30.3386C28.9621 30.656 28.1497 30.8 27.337 30.8C27.1048 30.8 26.8143 30.7715 26.582 30.7421C25.6244 30.6269 24.638 30.3101 23.6798 29.7624C22.5188 29.0991 21.3579 28.1481 20.0811 26.7643C18.8042 28.1481 17.6723 29.0991 16.4824 29.7624C15.5244 30.3101 14.5377 30.6269 13.5798 30.7421C13.3473 30.7712 13.0573 30.8 12.8251 30.8C12.0127 30.8 11.229 30.656 10.4743 30.3386C8.47139 29.5308 7.02054 27.7153 6.70132 25.553C6.55577 24.5148 6.67204 23.5057 7.04954 22.4392C7.19451 22.0646 7.33947 21.7187 7.48444 21.4013C7.58766 21.1709 7.69094 20.9461 7.79165 20.727C7.91754 20.453 8.03942 20.1877 8.15217 19.9311L8.18145 19.8738C10.184 15.5496 12.3606 11.1677 14.5954 6.84377L14.6827 6.6704C14.9203 6.22155 15.1523 5.76985 15.3789 5.31539C15.6688 4.79614 15.9883 4.24837 16.4238 3.72969C17.3812 2.63445 18.687 2 20.1385 2C21.5603 2 22.8955 2.63445 23.8241 3.78758C24.2523 4.26619 24.5321 4.76852 24.8008 5.25085L24.8691 5.37328C25.095 5.82802 25.3271 6.27973 25.5652 6.72829L25.6522 6.90166C27.9163 11.2256 30.0636 15.6072 32.0665 19.9317L32.0955 19.9605C32.2089 20.2184 32.3315 20.4856 32.4583 20.7618C32.5581 20.9792 32.6605 21.2022 32.7629 21.4307C32.8598 21.6428 32.9568 21.8805 33.0538 22.1181ZM55.6026 9.23649C55.6026 10.2744 54.7606 11.1102 53.7157 11.1102C52.6707 11.1102 51.8293 10.2744 51.8293 9.23649C51.8293 8.19856 52.642 7.3628 53.7157 7.3628C54.7902 7.3916 55.6026 8.22765 55.6026 9.23649ZM47.8237 13.0131V13.4744C47.8237 13.4744 46.9243 12.3207 45.0087 12.3207C41.8455 12.3207 39.3781 14.7137 39.3781 18.0288C39.3781 21.3154 41.8165 23.7368 45.0087 23.7368C46.9533 23.7368 47.8237 22.5549 47.8237 22.5549V23.0448C47.8237 23.2755 47.9982 23.448 48.2302 23.448H50.5807V12.6082H48.2302C47.9982 12.609 47.8237 12.8112 47.8237 13.0131ZM45.4746 21.1427C46.5193 21.1427 47.3902 20.5949 47.8251 19.9605V16.0973C47.4192 15.492 46.4906 14.9154 45.4746 14.9154C43.6173 14.9154 42.1948 16.0685 42.1948 18.0289C42.1948 19.9896 43.6173 21.1427 45.4746 21.1427ZM52.3238 12.6091H55.1098V23.4489H52.3238V12.6091ZM91.1273 13.4743C91.1273 13.4743 92.0272 12.3206 93.9428 12.3206C97.0771 12.3206 99.5438 14.7432 99.5438 18.0298C99.5438 21.3163 97.0771 23.7372 93.9133 23.7372C91.9982 23.7372 91.0983 22.5553 91.0983 22.5553V23.0452C91.0983 23.2471 90.9246 23.4489 90.6923 23.4489H88.3412V7.39154H91.1273V13.4743ZM93.4784 21.1136C92.4041 21.1136 91.5627 20.5664 91.1273 19.9317V16.0685C91.5627 15.492 92.4914 14.8866 93.4784 14.8866C95.3357 14.8866 96.7578 16.0397 96.7578 18.0001C96.7578 19.9605 95.336 21.1136 93.4784 21.1136ZM86.8894 23.4776V17.0202C86.8894 15.2039 86.5116 14.1662 85.5252 13.359C84.7125 12.6672 83.6966 12.3207 82.4774 12.3207C81.4037 12.3207 80.3301 12.6381 79.5174 13.4744V13.0131C79.5174 12.8112 79.3432 12.6093 79.1109 12.6093H76.9059V23.4491H79.6914V15.8959C80.2437 15.2614 81.1147 14.8289 81.9561 14.8289C83.5223 14.8289 84.1028 15.55 84.1028 17.337V23.4776H86.8894ZM70.1436 12.3206C68.2286 12.3206 67.3286 13.4743 67.3286 13.4743V7.39154H64.5426V23.4489H66.8931C67.1254 23.4489 67.2996 23.2471 67.2996 23.0452V22.5553C67.2996 22.5553 68.1996 23.7372 70.1146 23.7372C73.2784 23.7372 75.7452 21.3163 75.7452 18.0298C75.7742 14.7429 73.3074 12.3206 70.1436 12.3206ZM67.3286 19.9317C67.7641 20.5664 68.6055 21.1136 69.6792 21.1136C71.5371 21.1136 72.9589 19.9605 72.9589 18.0001C72.9589 16.0397 71.5371 14.8866 69.6792 14.8866C68.6928 14.8866 67.7641 15.492 67.3286 16.0685V19.9317ZM62.1335 12.3206C62.9749 12.3206 63.4104 12.4651 63.4104 12.4651V15.0306C63.4104 15.0306 61.0886 14.2521 59.6378 15.8957V23.4775H56.8512V12.6091H59.2023C59.4345 12.6091 59.6082 12.811 59.6082 13.0129V13.4743C60.1312 12.8686 61.2631 12.3206 62.1335 12.3206ZM20.1092 23.9676C18.5418 22.0072 17.5258 20.1624 17.1779 18.606C17.0329 17.9428 17.0037 17.3662 17.0909 16.8473C17.1486 16.3859 17.3232 15.9821 17.5554 15.6362C18.1069 14.8584 19.0355 14.3679 20.1095 14.3679C21.1837 14.3679 22.1413 14.8293 22.6638 15.6362C22.8961 15.9821 23.07 16.3862 23.1286 16.8473C23.2153 17.3665 23.1863 17.9716 23.0413 18.606C22.6919 20.1336 21.676 21.9787 20.1092 23.9676ZM29.0479 28.6959C30.4698 28.1193 31.4857 26.8216 31.6887 25.3226C31.805 24.5733 31.718 23.8521 31.4863 23.1034C31.4258 22.9027 31.3372 22.7023 31.24 22.4828C31.1975 22.3866 31.1533 22.2867 31.1091 22.1815C30.9933 21.9511 30.8848 21.7067 30.7762 21.4623C30.6671 21.2166 30.558 20.9708 30.4414 20.7392V20.7104C28.4052 16.3468 26.2861 12.0218 24.0854 7.73771L23.9981 7.56434C23.8845 7.35245 23.7707 7.13349 23.6568 6.91433C23.5385 6.68668 23.4202 6.45881 23.3017 6.23841C23.0694 5.77791 22.8085 5.34534 22.489 4.96951C21.8795 4.27832 21.0671 3.90307 20.1672 3.90307C19.2672 3.90307 18.4548 4.27832 17.8453 4.96951C17.5258 5.34448 17.2649 5.77704 17.0327 6.23841C16.9201 6.4484 16.8074 6.66518 16.6946 6.88209C16.5752 7.112 16.4556 7.34206 16.3359 7.56434L16.249 7.73771C14.0141 12.0041 11.8666 16.3859 9.86425 20.6816L9.83496 20.7389C9.60243 21.2288 9.37077 21.7193 9.16753 22.1806C9.12302 22.2868 9.07846 22.3875 9.03557 22.4845C8.93874 22.7034 8.8504 22.9031 8.79032 23.1031C8.4998 23.9103 8.44211 24.6309 8.52909 25.3514C8.73204 26.8504 9.74798 28.1481 11.1698 28.7247C11.8373 28.9839 12.5923 29.0994 13.3757 29.0127C14.1011 28.9266 14.8262 28.6959 15.5809 28.2633C16.6259 27.6868 17.6998 26.7928 18.8897 25.4666C17.0034 23.1316 15.8135 20.9693 15.3783 19.0671C15.146 18.202 15.1173 17.3662 15.2333 16.6163C15.3493 15.8957 15.6108 15.2325 16.017 14.6559C16.9167 13.3876 18.4261 12.6091 20.1089 12.6091C21.7917 12.6091 23.3011 13.3582 24.2014 14.6559C24.6076 15.2325 24.8691 15.8957 24.9848 16.6163C25.0723 17.3662 25.043 18.1732 24.8398 19.0671C24.4043 20.9693 23.2434 23.1031 21.3281 25.4378C22.5473 26.7643 23.5919 27.6574 24.6368 28.2345C25.391 28.6665 26.117 28.8972 26.8424 28.9839C27.5965 29.0706 28.3515 28.9839 29.0479 28.6959Z" fill="#FF5A5F"/>
</g>
</g>
<defs>
<clipPath id="clip0_19201_4231">
<rect width="106" height="32" fill="white"/>
</clipPath>
</defs>
</svg>
