<svg width="106" height="32" viewBox="0 0 106 32" fill="none" xmlns="http://www.w3.org/2000/svg">
<g clip-path="url(#clip0_19201_4219)">
<mask id="mask0_19201_4219" style="mask-type:alpha" maskUnits="userSpaceOnUse" x="0" y="0" width="106" height="32">
<rect width="106" height="32" fill="#919EAB"/>
</mask>
<g mask="url(#mask0_19201_4219)">
<path d="M103.516 14.6464V12.89H101.335V10.1593L101.262 10.1819L99.2132 10.8088L99.1728 10.821V12.89H95.9392V11.7374C95.9392 11.2007 96.0592 10.79 96.2957 10.5161C96.5306 10.2455 96.8665 10.1079 97.295 10.1079C97.603 10.1079 97.9219 10.1805 98.2429 10.3236L98.3234 10.3595V8.50973L98.2855 8.49581C97.9861 8.38819 97.5788 8.33398 97.074 8.33398C96.4378 8.33398 95.8598 8.47243 95.3556 8.74682C94.8512 9.02159 94.4544 9.41385 94.1765 9.91257C93.8995 10.4107 93.7589 10.9861 93.7589 11.6228V12.89H92.2401V14.6464H93.7589V22.046H95.9392V14.6464H99.1728V19.3487C99.1728 21.2854 100.086 22.2668 101.888 22.2668C102.184 22.2668 102.495 22.2321 102.814 22.1642C103.137 22.0944 103.358 22.0248 103.488 21.9504L103.517 21.9334V20.1607L103.428 20.2193C103.31 20.2982 103.162 20.3626 102.989 20.4105C102.816 20.4593 102.671 20.4838 102.559 20.4838C102.137 20.4838 101.824 20.3701 101.631 20.1456C101.435 19.9192 101.335 19.5231 101.335 18.9691V14.6464H103.516ZM87.3711 20.4841C86.5798 20.4841 85.9558 20.2217 85.5161 19.7048C85.0737 19.1853 84.8496 18.4446 84.8496 17.5036C84.8496 16.5327 85.0737 15.7728 85.5163 15.2442C85.9563 14.719 86.5742 14.4524 87.3533 14.4524C88.1094 14.4524 88.7112 14.707 89.1423 15.2095C89.5755 15.7146 89.7954 16.4684 89.7954 17.4506C89.7954 18.4448 89.5886 19.2086 89.1809 19.7195C88.776 20.2265 88.1671 20.4841 87.3711 20.4841ZM87.468 12.6694C85.9582 12.6694 84.7591 13.1118 83.904 13.9843C83.0496 14.8569 82.6163 16.0645 82.6163 17.5738C82.6163 19.0074 83.0392 20.1605 83.8734 21.0006C84.7076 21.8409 85.8428 22.2666 87.2473 22.2666C88.7108 22.2666 89.8861 21.818 90.7408 20.9334C91.5953 20.0498 92.0282 18.8536 92.0282 17.3795C92.0282 15.9236 91.622 14.7619 90.8204 13.9274C90.0184 13.0926 88.8903 12.6694 87.468 12.6694ZM79.101 12.6694C78.074 12.6694 77.2245 12.9321 76.5755 13.45C75.9226 13.9711 75.5914 14.6544 75.5914 15.4814C75.5914 15.9112 75.6629 16.293 75.8036 16.6169C75.9451 16.9418 76.1641 17.2279 76.4551 17.4679C76.7439 17.7061 77.1897 17.9556 77.7804 18.2094C78.277 18.4137 78.6473 18.5866 78.8826 18.7228C79.1125 18.8563 79.2757 18.9905 79.3679 19.1212C79.4574 19.2491 79.5028 19.4242 79.5028 19.6402C79.5028 20.2554 79.0422 20.5547 78.0943 20.5547C77.7427 20.5547 77.3417 20.4813 76.9024 20.3365C76.4662 20.194 76.0545 19.9853 75.6817 19.7176L75.5912 19.6527V21.7518L75.6244 21.7673C75.9329 21.9097 76.3219 22.0298 76.7803 22.1243C77.2379 22.2189 77.6536 22.267 78.0148 22.267C79.1292 22.267 80.0267 22.003 80.6815 21.482C81.3405 20.9574 81.6745 20.2579 81.6745 19.4024C81.6745 18.7852 81.4947 18.2559 81.1404 17.8291C80.7884 17.4057 80.1775 17.017 79.3254 16.6735C78.6466 16.401 78.2118 16.1749 78.0324 16.0012C77.8594 15.8335 77.7716 15.5963 77.7716 15.2959C77.7716 15.0297 77.88 14.8164 78.1025 14.6436C78.3267 14.47 78.6389 14.3817 79.0304 14.3817C79.3937 14.3817 79.7653 14.4391 80.135 14.5515C80.5043 14.664 80.8288 14.8146 81.0996 14.9989L81.1887 15.0597V13.0685L81.1545 13.0538C80.9046 12.9467 80.5752 12.855 80.175 12.7806C79.7766 12.7067 79.4153 12.6694 79.101 12.6694ZM69.9075 20.4841C69.1163 20.4841 68.4921 20.2217 68.0526 19.7048C67.6101 19.1853 67.3863 18.4448 67.3863 17.5036C67.3863 16.5327 67.6103 15.7728 68.053 15.2442C68.4926 14.719 69.1105 14.4524 69.89 14.4524C70.6457 14.4524 71.2475 14.707 71.6787 15.2095C72.112 15.7146 72.3318 16.4684 72.3318 17.4506C72.3318 18.4448 72.125 19.2086 71.7172 19.7195C71.3123 20.2265 70.7038 20.4841 69.9075 20.4841ZM70.0047 12.6694C68.4945 12.6694 67.2952 13.1118 66.4406 13.9843C65.5862 14.8569 65.1527 16.0645 65.1527 17.5738C65.1527 19.008 65.5758 20.1605 66.41 21.0006C67.2442 21.8409 68.3793 22.2666 69.7838 22.2666C71.2471 22.2666 72.4227 21.818 73.2774 20.9334C74.1317 20.0498 74.5649 18.8536 74.5649 17.3795C74.5649 15.9236 74.1585 14.7619 73.3567 13.9274C72.5545 13.0926 71.4266 12.6694 70.0047 12.6694ZM61.843 14.4756V12.89H59.6893V22.0458H61.843V17.3623C61.843 16.5659 62.0236 15.9116 62.3799 15.4174C62.7317 14.9291 63.2005 14.6817 63.7728 14.6817C63.9668 14.6817 64.1846 14.7137 64.4204 14.7769C64.6538 14.8398 64.8229 14.9081 64.9226 14.98L65.0132 15.0456V12.8743L64.9783 12.8593C64.7777 12.7741 64.4939 12.7311 64.1349 12.7311C63.5937 12.7311 63.1094 12.905 62.6945 13.2474C62.3304 13.5484 62.0672 13.961 61.8659 14.4756H61.843ZM55.8323 12.6694C54.8443 12.6694 53.963 12.8813 53.2133 13.2989C52.4621 13.7176 51.8812 14.3152 51.486 15.0752C51.0924 15.8333 50.8926 16.7189 50.8926 17.7065C50.8926 18.5716 51.0864 19.3655 51.4692 20.0651C51.8523 20.766 52.3945 21.3143 53.0809 21.6946C53.7662 22.0743 54.5584 22.2669 55.4355 22.2669C56.459 22.2669 57.3329 22.0623 58.0335 21.6587L58.0618 21.6425V19.6693L57.9713 19.7354C57.6539 19.9666 57.2992 20.1511 56.9176 20.2841C56.537 20.4169 56.1899 20.4841 55.8856 20.4841C55.0405 20.4841 54.3621 20.2196 53.8696 19.6983C53.3761 19.1763 53.1259 18.4433 53.1259 17.5209C53.1259 16.5927 53.3868 15.8409 53.9011 15.2861C54.4139 14.733 55.0935 14.4524 55.9211 14.4524C56.629 14.4524 57.3189 14.6921 57.9715 15.1655L58.0618 15.2311V13.1521L58.0326 13.1356C57.7871 12.9982 57.4521 12.8846 57.0363 12.7986C56.6222 12.7127 56.2172 12.6694 55.8323 12.6694ZM49.4093 12.89H47.2556V22.0458H49.4093V12.89ZM48.3545 8.98961C48 8.98961 47.6908 9.11028 47.4368 9.34941C47.1818 9.5892 47.0524 9.89113 47.0524 10.2474C47.0524 10.5982 47.1802 10.8946 47.4329 11.128C47.6839 11.3607 47.994 11.4787 48.3546 11.4787C48.715 11.4787 49.0263 11.3607 49.2803 11.1284C49.536 10.8946 49.6656 10.5982 49.6656 10.2474C49.6656 9.90359 49.5395 9.60476 49.2909 9.35907C49.0425 9.11386 48.7273 8.98961 48.3545 8.98961ZM42.9808 12.2145V22.0458H45.1788V9.26989H42.1367L38.2699 18.7595L34.5175 9.26989H31.3516V22.0457H33.4171V12.2136H33.488L37.4505 22.0458H39.0092L42.9099 12.2145H42.9808Z" fill="#706D6E"/>
<path d="M13.7724 15.1318H3.64062V5H13.7724V15.1318Z" fill="#F1511B"/>
<path d="M24.9597 15.1323H14.8281V5.00049H24.9597V15.1323Z" fill="#80CC28"/>
<path d="M13.7721 26.3231H3.64062V16.1914H13.7721V26.3231Z" fill="#00ADEF"/>
<path d="M24.9597 26.3231H14.8281V16.1914H24.9597V26.3231Z" fill="#FBBC09"/>
</g>
</g>
<defs>
<clipPath id="clip0_19201_4219">
<rect width="106" height="32" fill="white"/>
</clipPath>
</defs>
</svg>
