<svg width="25" height="24" viewBox="0 0 25 24" fill="none" xmlns="http://www.w3.org/2000/svg">
<path d="M17 10.5C15.8133 10.5 14.6533 10.8519 13.6666 11.5112C12.6799 12.1705 11.9109 13.1075 11.4567 14.2039C11.0026 15.3003 10.8838 16.5067 11.1153 17.6705C11.3468 18.8344 11.9182 19.9035 12.7574 20.7426C13.5965 21.5818 14.6656 22.1532 15.8295 22.3847C16.9933 22.6162 18.1997 22.4974 19.2961 22.0433C20.3925 21.5892 21.3295 20.8201 21.9888 19.8334C22.6481 18.8467 23 17.6867 23 16.5C22.998 14.9093 22.3652 13.3843 21.2405 12.2596C20.1157 11.1348 18.5907 10.502 17 10.5ZM21.4325 15.75H19.967C19.8696 14.6192 19.5597 13.5169 19.0535 12.501C19.6748 12.8211 20.2131 13.2812 20.626 13.8451C21.0389 14.4089 21.315 15.0611 21.4325 15.75ZM15.542 15.75C15.6799 14.3946 16.1839 13.1022 17 12.0112C17.8165 13.1021 18.3207 14.3945 18.4588 15.75H15.542ZM18.4595 17.25C18.3213 18.6056 17.8168 19.898 17 20.9888C16.1836 19.8979 15.6793 18.6055 15.5413 17.25H18.4595ZM14.9465 12.501C14.4403 13.5169 14.1304 14.6192 14.033 15.75H12.5675C12.685 15.0611 12.9611 14.4089 13.374 13.8451C13.7869 13.2812 14.3252 12.8211 14.9465 12.501ZM12.5675 17.25H14.0323C14.1296 18.3808 14.4396 19.4831 14.9458 20.499C14.3246 20.1789 13.7864 19.7187 13.3737 19.1548C12.9609 18.5909 12.685 17.9388 12.5675 17.25ZM19.0535 20.499C19.5598 19.4831 19.8697 18.3808 19.967 17.25H21.4325C21.315 17.9389 21.0389 18.5911 20.6261 19.155C20.2132 19.7189 19.6748 20.179 19.0535 20.499Z" fill="#919EAB"/>
<path d="M5 10.5H9.5V12H5V10.5Z" fill="#919EAB"/>
<path d="M5 4.5H14V6H5V4.5Z" fill="#919EAB"/>
<path d="M5 7.5H14V9H5V7.5Z" fill="#919EAB"/>
<path d="M5 18H9.5V19.5H5V18Z" fill="#919EAB"/>
<path d="M9.5 22.5H3.5C3.1023 22.4996 2.721 22.3414 2.43978 22.0602C2.15856 21.779 2.0004 21.3977 2 21V3C2.0004 2.6023 2.15856 2.221 2.43978 1.93978C2.721 1.65856 3.1023 1.5004 3.5 1.5H15.5C15.8977 1.5004 16.279 1.65856 16.5602 1.93978C16.8414 2.221 16.9996 2.6023 17 3V9H15.5V3H3.5V21H9.5V22.5Z" fill="#919EAB"/>
</svg>
