<svg width="88" height="88" viewBox="0 0 88 88" fill="none" xmlns="http://www.w3.org/2000/svg">
<path opacity="0.08" d="M87.36 21.1216C91.1768 35.9068 77.35 58.1304 61.0746 72.4564C44.7272 86.6905 25.8593 93.2107 13.8328 83.109C1.80626 73.0992 -3.37882 46.4676 2.31036 28.4683C7.92753 10.469 24.419 1.10197 43.2869 0.0918052C62.2268 -0.91836 83.6153 6.4283 87.36 21.1216Z" fill="url(#paint0_linear_18005_11526)"/>
<g clip-path="url(#clip0_18005_11526)">
<path d="M27.476 25.125H56.7948C59.438 25.125 61.5884 27.2839 61.5884 29.9375V42.757C61.5884 43.2749 62.0082 43.6945 62.5259 43.6945C63.0437 43.6945 63.4634 43.2749 63.4634 42.757V29.9375C63.4634 26.25 60.4719 23.25 56.7948 23.25H27.476C26.9583 23.25 26.5385 23.6696 26.5385 24.1875C26.5385 24.7054 26.9583 25.125 27.476 25.125Z" fill="#FA541C"/>
<path d="M50.2948 54.0695H32.6159C32.3407 54.0695 32.0795 54.1904 31.9014 54.4001L26.5892 60.6527L21.2773 54.4C21.0991 54.1903 20.8379 54.0694 20.5627 54.0694H18.6686C16.0254 54.0694 13.875 51.9105 13.875 49.2569V29.9375C13.875 27.2839 16.0254 25.125 18.6686 25.125H23.1285C23.6462 25.125 24.066 24.7054 24.066 24.1875C24.066 23.6696 23.6462 23.25 23.1285 23.25H18.6686C14.9915 23.25 12 26.25 12 29.9375V49.257C12 52.9445 14.9915 55.9445 18.6686 55.9445H20.1291L25.8749 62.7076C26.053 62.9174 26.3142 63.0382 26.5894 63.0382C26.8645 63.0382 27.1257 62.9174 27.3039 62.7076L33.0496 55.9445H50.2948C50.8125 55.9445 51.2323 55.5249 51.2323 55.007C51.2323 54.4891 50.8125 54.0695 50.2948 54.0695Z" fill="#FA541C"/>
<path d="M39.666 67.9163H31.143C30.6252 67.9163 30.2055 68.3359 30.2055 68.8538C30.2055 69.3717 30.6252 69.7913 31.143 69.7913H39.666C40.857 69.7913 41.826 70.7633 41.826 71.9582C41.826 73.153 40.857 74.1252 39.666 74.1252H16.035C14.844 74.1252 13.875 73.153 13.875 71.9582C13.875 70.7633 14.844 69.7913 16.035 69.7913H16.8644C17.1651 69.7913 17.4476 69.647 17.6239 69.4034L19.253 67.1523L20.8821 69.4034C21.0584 69.6469 21.3409 69.7913 21.6416 69.7913H26.8081C27.3259 69.7913 27.7456 69.3717 27.7456 68.8538C27.7456 68.3359 27.3259 67.9163 26.8081 67.9163H22.1204L20.0125 65.0035C19.8362 64.76 19.5537 64.6157 19.253 64.6157C18.9523 64.6157 18.6698 64.7599 18.4935 65.0035L16.3856 67.9163H16.035C13.8101 67.9163 12 69.7295 12 71.9582C12 74.1869 13.8101 76.0002 16.035 76.0002H39.666C41.8909 76.0002 43.701 74.1869 43.701 71.9582C43.701 69.7295 41.8909 67.9163 39.666 67.9163Z" fill="#FA541C"/>
<path d="M48.3325 20.0839H51.8591C52.3768 20.0839 52.7966 19.6643 52.7966 19.1464C52.7966 18.6285 52.3768 18.2089 51.8591 18.2089H48.3325C47.1415 18.2089 46.1725 17.2369 46.1725 16.042C46.1725 14.8471 47.1415 13.875 48.3325 13.875H71.9635C73.1545 13.875 74.1235 14.847 74.1235 16.0419C74.1235 17.2367 73.1545 18.2089 71.9635 18.2089H71.1341C70.8333 18.2089 70.5508 18.3531 70.3746 18.5967L68.7455 20.8479L67.1163 18.5966C66.9401 18.3531 66.6576 18.2087 66.3568 18.2087H56.1941C55.6763 18.2087 55.2566 18.6284 55.2566 19.1462C55.2566 19.6641 55.6763 20.0837 56.1941 20.0837H65.8781L67.986 22.9965C68.1622 23.24 68.4447 23.3844 68.7455 23.3844C69.0462 23.3844 69.3287 23.2401 69.505 22.9965L71.6128 20.0837H71.9635C74.1883 20.0837 75.9985 18.2705 75.9985 16.0417C75.9985 13.8133 74.1883 12 71.9635 12H48.3325C46.1076 12 44.2975 13.8132 44.2975 16.042C44.2975 18.2706 46.1076 20.0839 48.3325 20.0839Z" fill="#FA541C"/>
<path d="M25.7315 43.7424C25.2137 43.7424 24.794 44.162 24.794 44.6799C24.794 45.1978 25.2137 45.6174 25.7315 45.6174H30.7313C31.2491 45.6174 31.6688 45.1978 31.6688 44.6799V39.6799C31.6688 39.162 31.2491 38.7424 30.7313 38.7424H26.669V35.6174H30.7313C31.2491 35.6174 31.6688 35.1978 31.6688 34.6799C31.6688 34.162 31.2491 33.7424 30.7313 33.7424H25.7315C25.2137 33.7424 24.794 34.162 24.794 34.6799V39.6799C24.794 40.1978 25.2137 40.6174 25.7315 40.6174H29.7938V43.7424H25.7315Z" fill="#FA541C"/>
<path d="M40.1069 35.6174C40.6247 35.6174 41.0444 35.1978 41.0444 34.6799C41.0444 34.162 40.6247 33.7424 40.1069 33.7424H35.107C34.5893 33.7424 34.1695 34.162 34.1695 34.6799V44.6799C34.1695 45.1978 34.5893 45.6174 35.107 45.6174H40.1069C40.6247 45.6174 41.0444 45.1978 41.0444 44.6799C41.0444 44.162 40.6247 43.7424 40.1069 43.7424H36.0445V40.6174H40.1069C40.6247 40.6174 41.0444 40.1978 41.0444 39.6799C41.0444 39.162 40.6247 38.7424 40.1069 38.7424H36.0445V35.6174H40.1069Z" fill="#FA541C"/>
<path d="M44.4819 33.7424C43.9641 33.7424 43.5444 34.162 43.5444 34.6799V44.6799C43.5444 45.1978 43.9641 45.6174 44.4819 45.6174H49.4818C49.9995 45.6174 50.4193 45.1978 50.4193 44.6799V34.6799C50.4193 34.162 49.9995 33.7424 49.4818 33.7424H44.4819ZM48.5443 43.7424H45.4194V35.6174H48.5443V43.7424Z" fill="#FA541C"/>
<path d="M75.9987 55.1557C75.9985 54.6947 75.6633 54.3024 75.208 54.2302L73.9145 54.025L73.2972 52.5351L74.0664 51.474C74.3369 51.1009 74.296 50.5865 73.9702 50.2607L71.3224 47.6132C70.9962 47.2871 70.4813 47.2465 70.1083 47.5179L69.0494 48.2876L67.5602 47.6709L67.3543 46.3769C67.2819 45.9216 66.8893 45.5867 66.4284 45.5867L62.6849 45.5882C62.2239 45.5884 61.8313 45.9239 61.7593 46.3792L61.5544 47.6739L60.0665 48.2912L59.0067 47.522C58.6333 47.251 58.1184 47.2917 57.7927 47.6182L55.1468 50.2676C54.8212 50.5936 54.7808 51.1081 55.0515 51.4809L55.8212 52.5409L55.2045 54.032L53.9119 54.238C53.4567 54.3105 53.1218 54.7032 53.1219 55.1641L53.1234 58.9097C53.1235 59.3707 53.4589 59.7631 53.9142 59.8352L55.2075 60.0404L55.8249 61.5302L55.0557 62.5914C54.7852 62.9645 54.826 63.4789 55.1518 63.8046L57.7994 66.4522C58.1254 66.7781 58.6403 66.819 59.0135 66.5476L60.0724 65.7779L61.5615 66.3946L61.7674 67.6886C61.8399 68.1439 62.2324 68.4787 62.6933 68.4787L66.4368 68.4771C66.8978 68.4769 67.2903 68.1415 67.3623 67.6862L67.5673 66.3915L69.0553 65.7741L70.1152 66.5435C70.4884 66.8145 71.0033 66.7736 71.3292 66.4472L73.975 63.7979C74.3007 63.4719 74.341 62.9575 74.0704 62.5846L73.3008 61.5245L73.9174 60.0334L75.21 59.8275C75.6653 59.755 76.0003 59.3622 76 58.9014L75.9987 55.1557ZM73.1044 58.2644C72.7824 58.3156 72.5102 58.5306 72.3855 58.8319L71.3679 61.2926C71.2434 61.5937 71.2842 61.938 71.4755 62.2016L72.0834 63.0389L70.5687 64.5557L69.7319 63.9484C69.4678 63.7567 69.1232 63.7161 68.8219 63.8411L66.3643 64.8609C66.0632 64.9859 65.8487 65.2582 65.7977 65.5802L65.6358 66.6027L63.4935 66.6036L63.3309 65.582C63.2797 65.2601 63.0649 64.9879 62.7637 64.8631L60.3047 63.8449C60.1892 63.797 60.0674 63.7736 59.946 63.7736C59.7509 63.7736 59.5575 63.8345 59.3947 63.9529L58.5589 64.5604L57.0433 63.0447L57.6509 62.2065C57.8422 61.9426 57.8827 61.5984 57.7579 61.2974L56.739 58.838C56.6142 58.5367 56.3418 58.322 56.0198 58.271L54.9984 58.109L54.9975 55.964L56.0182 55.8012C56.3402 55.75 56.6124 55.535 56.7369 55.2337L57.7545 52.773C57.8792 52.4719 57.8383 52.1276 57.6468 51.864L57.0389 51.0267L58.5537 49.51L59.3904 50.1172C59.6545 50.3091 59.9993 50.3495 60.3004 50.2245L62.758 49.2047C63.0592 49.0797 63.2737 48.8072 63.3247 48.4852L63.4864 47.4629L65.6287 47.4621L65.7912 48.4837C65.8424 48.8056 66.0572 49.0779 66.3584 49.2026L68.8175 50.2209C69.119 50.3456 69.4635 50.3047 69.7274 50.113L70.5632 49.5055L72.0789 51.0211L71.4713 51.8592C71.28 52.1231 71.2395 52.4674 71.3643 52.7684L72.3834 55.2276C72.5083 55.5289 72.7807 55.7436 73.1027 55.7946L74.1242 55.9566L74.125 58.1017L73.1044 58.2644Z" fill="#FA541C"/>
<path d="M68.5415 56.0957C68.0238 56.0957 67.604 56.5153 67.604 57.0332C67.604 58.7111 66.239 60.0761 64.5613 60.0761C62.8835 60.0761 61.5185 58.7111 61.5185 57.0332C61.5185 55.3553 62.8835 53.9903 64.5613 53.9903C65.0007 53.9903 65.4243 54.0817 65.8202 54.262C66.2915 54.4767 66.8474 54.2683 67.0619 53.7971C67.2764 53.3257 67.0683 52.7698 66.597 52.5553C65.9555 52.2633 65.2706 52.1152 64.5613 52.1152C61.8497 52.1152 59.6435 54.3213 59.6435 57.0331C59.6435 59.7448 61.8497 61.951 64.5613 61.951C67.2729 61.951 69.479 59.7448 69.479 57.0331C69.479 56.5153 69.0593 56.0957 68.5415 56.0957Z" fill="#FA541C"/>
</g>
<defs>
<linearGradient id="paint0_linear_18005_11526" x1="0" y1="0" x2="88" y2="88" gradientUnits="userSpaceOnUse">
<stop stop-color="#FDAB76"/>
<stop offset="1" stop-color="#FA541C"/>
</linearGradient>
<clipPath id="clip0_18005_11526">
<rect width="64" height="64" fill="white" transform="translate(12 12)"/>
</clipPath>
</defs>
</svg>
