<svg width="28" height="28" viewBox="0 0 28 28" fill="none" xmlns="http://www.w3.org/2000/svg">
<path d="M24.5 5.05408H3.5C3.03587 5.05408 2.59075 5.23845 2.26256 5.56664C1.93437 5.89483 1.75 6.33995 1.75 6.80408V20.8041C1.75 21.2682 1.93437 21.7133 2.26256 22.0415C2.59075 22.3697 3.03587 22.5541 3.5 22.5541H24.5C24.9641 22.5541 25.4092 22.3697 25.7374 22.0415C26.0656 21.7133 26.25 21.2682 26.25 20.8041V6.80408C26.25 6.33995 26.0656 5.89483 25.7374 5.56664C25.4092 5.23845 24.9641 5.05408 24.5 5.05408ZM22.575 6.80408L14 12.7366L5.425 6.80408H22.575ZM3.5 20.8041V7.60033L13.5013 14.5216C13.6477 14.6232 13.8217 14.6776 14 14.6776C14.1783 14.6776 14.3523 14.6232 14.4987 14.5216L24.5 7.60033V20.8041H3.5Z" fill="#212B36"/>
</svg>
