<svg width="28" height="28" viewBox="0 0 28 28" fill="none" xmlns="http://www.w3.org/2000/svg">
<path d="M14 15.75C13.1347 15.75 12.2889 15.4934 11.5694 15.0127C10.8499 14.5319 10.2892 13.8487 9.95804 13.0492C9.6269 12.2498 9.54027 11.3701 9.70908 10.5215C9.87789 9.67281 10.2946 8.89326 10.9064 8.28141C11.5183 7.66955 12.2978 7.25287 13.1465 7.08406C13.9952 6.91525 14.8748 7.00189 15.6743 7.33303C16.4737 7.66416 17.157 8.22491 17.6377 8.94438C18.1184 9.66384 18.375 10.5097 18.375 11.375C18.3737 12.5349 17.9123 13.6469 17.0921 14.4671C16.272 15.2873 15.1599 15.7487 14 15.75ZM14 8.75C13.4808 8.75 12.9733 8.90395 12.5416 9.19239C12.11 9.48083 11.7735 9.8908 11.5748 10.3705C11.3761 10.8501 11.3242 11.3779 11.4254 11.8871C11.5267 12.3963 11.7767 12.864 12.1439 13.2312C12.511 13.5983 12.9787 13.8483 13.4879 13.9496C13.9971 14.0508 14.5249 13.9989 15.0046 13.8002C15.4842 13.6015 15.8942 13.265 16.1826 12.8334C16.4711 12.4017 16.625 11.8942 16.625 11.375C16.6242 10.679 16.3474 10.0118 15.8553 9.51969C15.3632 9.02757 14.696 8.75076 14 8.75Z" fill="#212B36"/>
<path d="M14 26.25L6.61895 17.5449C6.57703 17.4949 6.31427 17.1498 6.31427 17.1498C5.05331 15.489 4.37205 13.4603 4.37501 11.375C4.37501 8.82229 5.38907 6.37414 7.19411 4.5691C8.99914 2.76406 11.4473 1.75 14 1.75C16.5527 1.75 19.0009 2.76406 20.8059 4.5691C22.611 6.37414 23.625 8.82229 23.625 11.375C23.6281 13.4594 22.9474 15.4873 21.6871 17.1476L21.6857 17.1498C21.6857 17.1498 21.4232 17.4949 21.3841 17.5413L14 26.25ZM7.71095 16.0956C7.71182 16.0962 7.91517 16.3653 7.96172 16.4232L14 23.5444L20.0463 16.4132C20.0847 16.3649 20.2898 16.0939 20.2902 16.0932C21.3203 14.7361 21.877 13.0787 21.875 11.375C21.875 9.28642 21.0453 7.28338 19.5685 5.80653C18.0916 4.32968 16.0886 3.5 14 3.5C11.9114 3.5 9.90839 4.32968 8.43154 5.80653C6.95469 7.28338 6.12501 9.28642 6.12501 11.375C6.12307 13.0797 6.68018 14.7379 7.71095 16.0956Z" fill="#212B36"/>
</svg>
