<svg width="65" height="64" viewBox="0 0 65 64" fill="none" xmlns="http://www.w3.org/2000/svg">
<path d="M11.1616 24.172L21.5056 13.828M37.5056 24.172L27.1616 13.828M43.1616 24.172L53.5056 13.828M4.3335 44H12.3335V57H4.3335V44ZM36.3335 43H44.3335V57H36.3335V43ZM20.3335 27H28.3335V57H20.3335V27ZM52.3335 27H60.3335V57H52.3335V27ZM12.3335 27C12.3335 29.2091 10.5426 31 8.3335 31C6.12436 31 4.3335 29.2091 4.3335 27C4.3335 24.7909 6.12436 23 8.3335 23C10.5426 23 12.3335 24.7909 12.3335 27ZM44.3335 27C44.3335 29.2091 42.5426 31 40.3335 31C38.1244 31 36.3335 29.2091 36.3335 27C36.3335 24.7909 38.1244 23 40.3335 23C42.5426 23 44.3335 24.7909 44.3335 27ZM28.3335 11C28.3335 13.2091 26.5426 15 24.3335 15C22.1244 15 20.3335 13.2091 20.3335 11C20.3335 8.79086 22.1244 7 24.3335 7C26.5426 7 28.3335 8.79086 28.3335 11ZM60.3335 11C60.3335 13.2091 58.5426 15 56.3335 15C54.1244 15 52.3335 13.2091 52.3335 11C52.3335 8.79086 54.1244 7 56.3335 7C58.5426 7 60.3335 8.79086 60.3335 11Z" stroke="#FA541C" stroke-width="2" stroke-miterlimit="10"/>
</svg>
