<svg width="61" height="61" viewBox="0 0 61 61" fill="none" xmlns="http://www.w3.org/2000/svg">
<path d="M59.6878 0.00802713C47.1945 -0.215973 32.9465 6.31469 23.9278 16.4454C15.3092 16.608 6.91718 20.1414 0.738509 26.32C0.378509 26.6747 0.250509 27.2054 0.407842 27.6854C0.567842 28.168 0.983843 28.5174 1.48518 28.5894L11.7625 30.0614L10.4932 31.4827C10.0212 32.0107 10.0452 32.8134 10.5465 33.3147L27.6852 50.4534C27.9438 50.712 28.2852 50.8427 28.6292 50.8427C28.9465 50.8427 29.2638 50.7307 29.5172 50.504L30.9385 49.2347L32.4105 59.512C32.4825 60.0134 32.8772 60.3814 33.3545 60.5414C33.4772 60.5814 33.6052 60.6 33.7358 60.6C34.1145 60.6 34.5012 60.4347 34.7678 60.1707C40.8612 54.0774 44.3945 45.6854 44.5572 37.0667C54.6985 28.0294 61.2825 13.7867 60.9918 1.30936C60.9732 0.600027 60.3998 0.0266938 59.6878 0.00802713ZM47.3998 23.0267C46.1012 24.3254 44.3945 24.976 42.6852 24.976C40.9758 24.976 39.2692 24.3254 37.9705 23.0267C35.3732 20.4267 35.3732 16.1974 37.9705 13.5974C40.5705 10.9974 44.7998 10.9974 47.3998 13.5974C49.9998 16.1974 49.9998 20.4294 47.3998 23.0267Z" fill="#C4CDD5"/>
</svg>
