<svg width="144" height="36" viewBox="0 0 144 36" fill="none" xmlns="http://www.w3.org/2000/svg">
<path d="M24.6687 10.5H11.3312C11.1113 10.5016 10.9008 10.5897 10.7453 10.7453C10.5897 10.9008 10.5016 11.1113 10.5 11.3312V24.6687C10.5016 24.8887 10.5897 25.0992 10.7453 25.2547C10.9008 25.4103 11.1113 25.4984 11.3312 25.5H18.5125V19.7H16.5625V17.4313H18.5125V15.7625C18.5125 13.825 19.6937 12.7688 21.4312 12.7688C22.0125 12.7688 22.5938 12.7687 23.175 12.8563V14.875H21.9813C21.0375 14.875 20.8562 15.325 20.8562 15.9813V17.425H23.1062L22.8125 19.6937H20.8562V25.5H24.6687C24.8887 25.4984 25.0992 25.4103 25.2547 25.2547C25.4103 25.0992 25.4984 24.8887 25.5 24.6687V11.3312C25.4984 11.1113 25.4103 10.9008 25.2547 10.7453C25.0992 10.5897 24.8887 10.5016 24.6687 10.5Z" fill="#212B36"/>
<path d="M58.0037 14.8965C58.5007 14.8965 58.9037 14.4936 58.9037 13.9965C58.9037 13.4995 58.5007 13.0965 58.0037 13.0965C57.5066 13.0965 57.1037 13.4995 57.1037 13.9965C57.1037 14.4936 57.5066 14.8965 58.0037 14.8965Z" fill="#212B36"/>
<path d="M54.0004 14.1486C53.2387 14.1486 52.494 14.3745 51.8607 14.7977C51.2273 15.2209 50.7337 15.8224 50.4422 16.5261C50.1507 17.2299 50.0744 18.0043 50.223 18.7513C50.3716 19.4984 50.7384 20.1847 51.2771 20.7233C51.8157 21.2619 52.5019 21.6287 53.249 21.7774C53.9961 21.926 54.7705 21.8497 55.4742 21.5582C56.178 21.2667 56.7795 20.773 57.2027 20.1397C57.6259 19.5063 57.8518 18.7617 57.8518 18C57.8518 16.9785 57.446 15.9989 56.7237 15.2766C56.0014 14.5544 55.0218 14.1486 54.0004 14.1486ZM54.0004 20.5C53.5059 20.5 53.0226 20.3534 52.6115 20.0787C52.2003 19.804 51.8799 19.4135 51.6907 18.9567C51.5015 18.4999 51.452 17.9972 51.5484 17.5123C51.6449 17.0273 51.883 16.5818 52.2326 16.2322C52.5823 15.8826 53.0277 15.6445 53.5127 15.548C53.9976 15.4516 54.5003 15.5011 54.9571 15.6903C55.4139 15.8795 55.8044 16.1999 56.0791 16.6111C56.3538 17.0222 56.5004 17.5055 56.5004 18C56.5004 18.663 56.237 19.2989 55.7682 19.7677C55.2993 20.2366 54.6634 20.5 54.0004 20.5Z" fill="#212B36"/>
<path d="M54 11.8514C56.0026 11.8514 56.2398 11.859 57.0306 11.8951C57.5062 11.9008 57.9773 11.9881 58.4233 12.1534C58.7467 12.2782 59.0405 12.4693 59.2856 12.7144C59.5308 12.9596 59.7219 13.2533 59.8467 13.5768C60.0119 14.0228 60.0993 14.4938 60.1049 14.9694C60.141 15.7603 60.1487 15.9975 60.1487 18.0001C60.1487 20.0026 60.1411 20.2399 60.1049 21.0307C60.0993 21.5063 60.0119 21.9774 59.8467 22.4234C59.7219 22.7468 59.5308 23.0405 59.2856 23.2857C59.0405 23.5308 58.7467 23.7219 58.4233 23.8467C57.9773 24.012 57.5062 24.0993 57.0306 24.105C56.2399 24.1411 56.0027 24.1487 54 24.1487C51.9972 24.1487 51.7601 24.1411 50.9694 24.105C50.4938 24.0993 50.0227 24.012 49.5767 23.8467C49.2532 23.7219 48.9595 23.5308 48.7144 23.2857C48.4692 23.0405 48.2781 22.7468 48.1533 22.4234C47.9881 21.9774 47.9007 21.5063 47.8951 21.0307C47.859 20.2399 47.8513 20.0026 47.8513 18.0001C47.8513 15.9975 47.8589 15.7603 47.8951 14.9694C47.9007 14.4938 47.9881 14.0228 48.1533 13.5768C48.2781 13.2533 48.4692 12.9596 48.7144 12.7144C48.9595 12.4693 49.2532 12.2781 49.5767 12.1533C50.0227 11.9881 50.4938 11.9007 50.9694 11.8951C51.7602 11.859 51.9974 11.8514 54 11.8514ZM54 10.5C51.9631 10.5 51.7077 10.5086 50.9077 10.5451C50.2857 10.5576 49.6702 10.6755 49.0875 10.8938C48.5892 11.0864 48.1367 11.3811 47.7589 11.7589C47.3811 12.1367 47.0864 12.5892 46.8938 13.0875C46.6755 13.6703 46.5576 14.2859 46.5451 14.9081C46.5086 15.7077 46.5 15.9631 46.5 18C46.5 20.0369 46.5086 20.2923 46.5451 21.0922C46.5576 21.7144 46.6755 22.33 46.8938 22.9128C47.0864 23.4111 47.3811 23.8636 47.7589 24.2414C48.1367 24.6192 48.5892 24.9139 49.0875 25.1066C49.6703 25.3249 50.2859 25.4427 50.9081 25.4552C51.7077 25.4914 51.9631 25.5 54 25.5C56.0369 25.5 56.2923 25.4914 57.0922 25.4549C57.7144 25.4424 58.33 25.3245 58.9128 25.1062C59.4111 24.9136 59.8636 24.6189 60.2414 24.2411C60.6192 23.8633 60.9139 23.4108 61.1066 22.9125C61.3248 22.3297 61.4427 21.7141 61.4552 21.0919C61.4914 20.2923 61.5 20.0369 61.5 18C61.5 15.9631 61.4914 15.7077 61.4549 14.9077C61.4424 14.2857 61.3245 13.6702 61.1062 13.0875C60.9135 12.5893 60.6188 12.1368 60.2411 11.7591C59.8633 11.3814 59.4108 11.0867 58.9125 10.8941C58.3297 10.6758 57.7141 10.5579 57.0919 10.5454C56.2923 10.5086 56.0369 10.5 54 10.5Z" fill="#212B36"/>
<path d="M96.375 10.5H83.625C83 10.5 82.5 11 82.5 11.5625V24.375C82.5 24.9375 83 25.4375 83.625 25.4375H96.375C97 25.4375 97.5 24.9375 97.5 24.375V11.5625C97.5 11 97 10.5 96.375 10.5ZM86.9375 23.25H84.75V16.125H86.9375V23.25ZM85.875 15.125C85.1875 15.125 84.5625 14.5625 84.5625 13.8125C84.5625 13.0625 85.125 12.5 85.875 12.5C86.5625 12.5 87.1875 13.0625 87.1875 13.8125C87.1875 14.5625 86.5625 15.125 85.875 15.125ZM95.3125 23.1875H93.125V19.6875C93.125 18.875 93.125 17.75 91.9375 17.75C90.75 17.75 90.625 18.6875 90.625 19.5625V23.125H88.4375V16.125H90.5V17.0625H90.5625C90.875 16.5 91.625 15.875 92.6875 15.875C94.9375 15.875 95.375 17.375 95.375 19.3125V23.1875H95.3125Z" fill="#212B36"/>
<path d="M123.45 23.5871C124.506 23.5937 125.552 23.3907 126.529 22.9897C127.506 22.5888 128.393 21.9979 129.139 21.2514C129.886 20.5049 130.477 19.6176 130.878 18.641C131.279 17.6643 131.482 16.6178 131.475 15.5621C131.475 15.4371 131.475 15.3183 131.475 15.1933C132.022 14.7924 132.496 14.2997 132.875 13.7371C132.36 13.9625 131.814 14.1119 131.256 14.1808C131.848 13.8282 132.292 13.2731 132.506 12.6183C131.955 12.9492 131.35 13.1819 130.719 13.3058C130.294 12.8529 129.731 12.5527 129.118 12.4517C128.506 12.3507 127.877 12.4544 127.329 12.7469C126.781 13.0393 126.344 13.5042 126.087 14.0696C125.83 14.635 125.767 15.2694 125.906 15.8746C124.785 15.8195 123.688 15.529 122.686 15.0218C121.685 14.5146 120.802 13.8021 120.094 12.9308C119.737 13.5503 119.629 14.2823 119.791 14.9785C119.954 15.6748 120.375 16.2833 120.969 16.6808C120.53 16.6639 120.102 16.544 119.719 16.3308V16.3621C119.715 17.0095 119.933 17.6387 120.337 18.1448C120.74 18.6508 121.305 19.0033 121.938 19.1433C121.53 19.253 121.103 19.2701 120.688 19.1933C120.87 19.7455 121.22 20.2274 121.688 20.5732C122.155 20.919 122.718 21.1116 123.3 21.1246C122.306 21.9249 121.07 22.3654 119.794 22.3746C119.57 22.3681 119.347 22.3493 119.125 22.3183C120.417 23.1414 121.918 23.5753 123.45 23.5683" fill="#212B36"/>
</svg>
